<svg xmlns="http://www.w3.org/2000/svg" version="1.2" viewBox="0 0 2048 2048">
  <path d="M1024 2048a1023 1023 0 1 1 0-2048 1023 1023 0 1 1 0 2048z" style="fill:#1c1917"/>
  <path d="m912 1306-170-164-524 517s59 73 79 92c19 18 93 77 93 77z" style="fill:#965028"/>
  <path d="M483 1531c-17 37-23 59-11 110 10 45 48 57 48 57l363-367-99-101s-282 261-301 301z" style="fill:#aa6432"/>
  <path d="m1568 610 96-482a286 286 0 0 1 41-101l15-25c0-1-8-2-19-2s-31 4-45 9-36 15-48 22-31 22-42 32a865 865 0 0 0-62 68l-54 72c-27 35-59 73-70 85a171 171 0 0 1-76 52c-8 2-34 6-58 8s-57 7-72 10a297 297 0 0 0-160 87 498 498 0 0 0-110 267 571 571 0 0 0 8 130l10 35c4 9 8 15 13 15 6 0 633-282 633-282z" style="fill:#f2c230"/>
  <path d="M1169 1118c7 3 27 8 44 12a473 473 0 0 0 281-40 719 719 0 0 0 266-217q10-13 6-17c-3-3-14-2-36 2-21 5-40 6-54 4-12-1-29-6-38-11-10-6-19-15-25-27-6-11-9-25-9-37 0-11 2-27 4-38a523 523 0 0 1 138-210 1181 1181 0 0 1 140-119 508 508 0 0 0 126-148l21-52c10-28 12-42 14-82a227 227 0 0 0-17-111c-4-6-8-11-10-11s-14 14-26 30a573 573 0 0 1-148 136c-11 7-32 18-48 24-19 8-38 12-58 13-22 1-33 1-42-4-6-3-16-10-20-15s-11-17-14-27l-6-18c-44 46-78 89-106 125l-72 90c-12 13-31 30-42 39s-29 18-40 21-44 8-74 12a344 344 0 0 0-138 34 277 277 0 0 0-100 84c-10 14-29 46-42 71-12 25-60 96-58 98 2 1 176 385 183 389z" style="fill:#ffe13c"/>
  <path d="m1498 480-88 16a1174 1174 0 0 0-268 102c-16 8-42 26-60 38a388 388 0 0 0-103 100c-8 12-19 32-23 43s-10 33-12 48l-15 78 206 218s145-44 145-46l-111-297s416-293 398-302c-13-7-43-2-69 2z" style="fill:#ff640a"/>
  <path d="M1506 502a923 923 0 0 0-250 127 359 359 0 0 0-102 111c-7 14-16 37-20 50a244 244 0 0 0 26 172 352 352 0 0 0 101 101l23 13a452 452 0 0 0 168-198c0-4-4-6-15-6-8 0-22-2-30-4s-22-11-31-19c-11-9-18-21-21-31a212 212 0 0 1 8-96 340 340 0 0 1 94-130c11-10 35-28 52-39 17-12 35-27 41-34l14-24c3-9 3-11-1-11-3 0-29 8-57 18z" style="fill:#ff8c05"/>
  <path d="M1072 1176c4 2 42 19 69-10 29-30 8-76 8-76L969 906l-262 247 195 191s40 10 72-16c27-22 6-73 10-69 4 2 45 18 77-12 26-24 4-75 11-71z" style="fill:#e6b455"/>
  <path d="M784 1138c-4-12-4-20-1-32 3-9 11-22 11-22l136 116s13-3 19-8c8-6 17-27 17-37 0-13-95-93-98-103-2-9-2-19 0-28 2-8 10-22 10-22l132 111s12 0 18-3c6-2 12-9 15-15 4-9 4-30 4-30l-89-86s-6-19-6-28c0-10 3-22 8-30l8-15c0-1-6-5-14-8s-20-6-27-6-20 4-28 9a64 64 0 0 0-30 57l6 20c3 7 2 7-5 4l-22-5c-10-1-19 1-32 8-10 5-20 15-25 23-5 10-7 19-6 32l4 24c3 5 1 5-13 1-9-3-21-4-27-3l-23 10c-6 4-15 14-19 22s-7 21-7 29 11 43 11 43l135 122s13-7 19-12c8-6 22-34 22-34s-99-92-103-104z" style="fill:#dca041"/>
</svg>
