<svg version="1.2" xmlns="http://www.w3.org/2000/svg" viewBox="0 0 1831 1831" width="512" height="512">
	<title>favicon-svg</title>
	<style>
		.s0 { fill: #965028 } 
		.s1 { fill: #aa6432 } 
		.s2 { fill: #f2c230 } 
		.s3 { fill: #ffe13c } 
		.s4 { fill: #ff640a } 
		.s5 { fill: #ff8c05 } 
		.s6 { fill: #e6b455 } 
		.s7 { fill: #dca041 } 
	</style>
	<path id="Layer" class="s0" d="m694 1307l-170-164-524 517c0 0 59 73 79 92 19 18 93 77 93 77z"/>
	<path id="Layer" class="s1" d="m265 1532c-17 37-23 59-11 110 10 45 48 57 48 57l363-367-99-101c0 0-282 261-301 301z"/>
	<path id="Layer" class="s2" d="m1350 611l96-482q2.6-13.5 6.6-26.6 3.9-13.2 9-25.9 5.2-12.7 11.6-24.8 6.3-12.2 13.8-23.7l15-25c0-1-8-2-19-2-11 0-31 4-45 9-14 5-36 15-48 22-12 7-31 22-42 32q-8.2 8.1-16.2 16.4-8 8.3-15.7 16.8-7.8 8.5-15.3 17.2-7.5 8.7-14.8 17.6l-54 72c-27 35-59 73-70 85q-7.5 8.9-16.2 16.8-8.6 7.8-18.2 14.4-9.7 6.6-20.1 11.8-10.4 5.2-21.5 9c-8 2-34 6-58 8-24 2-57 7-72 10-15.2 2.9-30.1 6.9-44.6 12.1-14.6 5.2-28.7 11.5-42.2 18.8-13.6 7.4-26.6 15.8-38.8 25.2-12.3 9.4-23.8 19.7-34.4 30.9-15.5 18.9-29.5 38.9-42 59.9-12.5 21-23.5 42.9-32.8 65.5-9.3 22.5-16.9 45.8-22.8 69.5-5.9 23.7-10 47.8-12.4 72.1q-0.9 16.3-0.8 32.6 0.1 16.3 1.1 32.6 1 16.3 2.9 32.5 1.9 16.2 4.8 32.3l10 35c4 9 8 15 13 15 6 0 633-282 633-282z"/>
	<path id="Layer" class="s3" d="m951 1119c7 3 27 8 44 12 23.7 3.9 47.7 6 71.7 6.3 24.1 0.2 48.1-1.3 71.9-4.7 23.8-3.4 47.3-8.6 70.3-15.6 23-6.9 45.4-15.6 67.1-26 26.1-12.4 51.4-26.3 75.9-41.8 24.4-15.4 47.9-32.3 70.2-50.6 22.4-18.3 43.7-37.9 63.7-58.7 20.1-20.8 38.8-42.8 56.2-65.9q10-13 6-17c-3-3-14-2-36 2-21 5-40 6-54 4-12-1-29-6-38-11-10-6-19-15-25-27-6-11-9-25-9-37 0-11 2-27 4-38 7-20 15.3-39.5 24.7-58.4 9.3-19 19.9-37.3 31.5-55 11.6-17.7 24.3-34.6 38-50.8 13.6-16.1 28.3-31.4 43.8-45.8q16.3-16.2 33.2-31.8 17-15.5 34.5-30.4 17.5-14.9 35.6-29.1 18.1-14.2 36.7-27.7 19.1-15.3 36.7-32.3 17.6-17 33.4-35.6 15.9-18.6 29.9-38.7 14-20.1 26-41.4l21-52c10-28 12-42 14-82q1.4-14.1 1-28.3-0.4-14.2-2.5-28.3-2.2-14-6.1-27.7-3.8-13.6-9.4-26.7c-4-6-8-11-10-11-2 0-14 14-26 30q-15.3 20.1-32.4 38.8-17 18.6-35.6 35.7-18.6 17.1-38.6 32.5-20.1 15.4-41.4 29c-11 7-32 18-48 24-19 8-38 12-58 13-22 1-33 1-42-4-6-3-16-10-20-15-4-5-11-17-14-27l-6-18c-44 46-78 89-106 125l-72 90c-12 13-31 30-42 39-11 9-29 18-40 21-11 3-44 8-74 12q-17.9 0.6-35.6 3.1-17.8 2.4-35.2 6.7-17.4 4.3-34.2 10.3-16.9 6.1-33 13.9-14.8 7.3-28.6 16.4-13.8 9-26.4 19.6-12.7 10.6-23.9 22.7-11.3 12-21.1 25.3c-10 14-29 46-42 71-12 25-60 96-58 98 2 1 176 385 183 389z"/>
	<path id="Layer" class="s4" d="m1280 481l-88 16q-34.9 8.6-69.2 19.3-34.3 10.7-67.9 23.5-33.6 12.8-66.4 27.6-32.7 14.8-64.5 31.6c-16 8-42 26-60 38q-15.1 10-29.1 21.3-14.1 11.3-27.1 23.9-12.9 12.6-24.7 26.3-11.7 13.7-22.1 28.5c-8 12-19 32-23 43-4 11-10 33-12 48l-15 78 206 218c0 0 145-44 145-46l-111-297c0 0 416-293 398-302-13-7-43-2-69 2z"/>
	<path id="Layer" class="s5" d="m1288 503q-33.4 11-66 24.5-32.5 13.5-63.9 29.5-31.3 15.9-61.4 34.2-30.1 18.3-58.7 38.8-15.5 11-29.8 23.5-14.2 12.6-27.1 26.6-12.8 14-24.2 29.2-11.3 15.3-20.9 31.7c-7 14-16 37-20 50-3.2 14.5-5 29.2-5.5 44.1-0.4 14.8 0.4 29.6 2.7 44.3 2.2 14.7 5.7 29.1 10.6 43.1 4.8 14 10.9 27.6 18.2 40.5q9.9 15 21.2 29 11.4 14 24.1 26.7 12.7 12.7 26.7 24.1 14 11.3 29 21.2l23 13c18.4-12 35.9-25.2 52.4-39.7 16.5-14.5 31.9-30.2 46.1-47 14.2-16.7 27.2-34.5 38.8-53.1 11.6-18.6 21.9-38.1 30.7-58.2 0-4-4-6-15-6-8 0-22-2-30-4-8-2-22-11-31-19-11-9-18-21-21-31q-1.8-12-2.2-24.2-0.3-12.1 0.7-24.3 1-12.1 3.4-24 2.4-11.9 6.1-23.5c5.1-12.5 11-24.7 17.5-36.5 6.6-11.8 13.8-23.2 21.7-34.1 7.9-11 16.5-21.4 25.6-31.3 9.2-10 18.9-19.3 29.2-28.1 11-10 35-28 52-39 17-12 35-27 41-34l14-24c3-9 3-11-1-11-3 0-29 8-57 18z"/>
	<path id="Layer" class="s6" d="m854 1177c4 2 42 19 69-10 29-30 8-76 8-76l-180-184-262 247 195 191c0 0 40 10 72-16 27-22 6-73 10-69 4 2 45 18 77-12 26-24 4-75 11-71z"/>
	<path id="Layer" class="s7" d="m566 1139c-4-12-4-20-1-32 3-9 11-22 11-22l136 116c0 0 13-3 19-8 8-6 17-27 17-37 0-13-95-93-98-103-2-9-2-19 0-28 2-8 10-22 10-22l132 111c0 0 12 0 18-3 6-2 12-9 15-15 4-9 4-30 4-30l-89-86c0 0-6-19-6-28 0-10 3-22 8-30l8-15c0-1-6-5-14-8-8-3-20-6-27-6-7 0-20 4-28 9-4.8 3-9.1 6.6-13 10.7-3.8 4.1-7.1 8.8-9.7 13.8-2.6 4.9-4.6 10.2-5.8 15.7-1.2 5.5-1.7 11.2-1.5 16.8l6 20c3 7 2 7-5 4l-22-5c-10-1-19 1-32 8-10 5-20 15-25 23-5 10-7 19-6 32l4 24c3 5 1 5-13 1-9-3-21-4-27-3l-23 10c-6 4-15 14-19 22-4 8-7 21-7 29 0 8 11 43 11 43l135 122c0 0 13-7 19-12 8-6 22-34 22-34 0 0-99-92-103-104z"/>
</svg>